<svg width="226" height="56" viewBox="0 0 226 56" fill="none" xmlns="http://www.w3.org/2000/svg">
<path d="M44.8727 24.8353H31.2197V49.8898H44.8727V24.8353Z" fill="#4F37FD"/>
<path d="M62.4129 6.17548H37.332V18.7161H62.4069L62.4129 6.17548Z" fill="#2CCD9A"/>
<path d="M31.2202 12.2947H6.16602V24.8353H31.2202V12.2947Z" fill="#4F37FD"/>
<path d="M194.418 20.4467H189.085V50.0794H194.172V30.5663H194.409L204.483 50.0824H204.676L214.788 30.5663H214.981V50.0794H220.003V20.4467H215.155L204.83 40.5406H204.679L194.418 20.4467ZM79.4048 50.0794H84.4418V24.856H97.7096V20.4467H84.4595V24.856H68.8096V29.2565H79.4048V50.0794ZM123.658 20.4467V24.4174H133.214V50.0794H138.301V24.4263H147.847V20.4467H123.658ZM175.761 43.1187C175.776 43.4541 175.725 43.7892 175.613 44.1055C175.485 44.4202 175.294 44.7056 175.053 44.9441C174.822 45.1932 174.536 45.3841 174.217 45.5012C173.9 45.6136 173.564 45.6649 173.228 45.6523H162.215C161.879 45.6675 161.544 45.6161 161.228 45.5012C160.903 45.3835 160.609 45.1929 160.369 44.9441C160.127 44.71 159.944 44.4228 159.832 44.1055C159.71 43.7916 159.659 43.4547 159.681 43.1187V20.4467H154.594V42.8816C154.547 43.7802 154.678 44.6791 154.979 45.5271C155.279 46.3752 155.744 47.1557 156.346 47.8241C156.949 48.4924 157.677 49.0356 158.489 49.4226C159.301 49.8096 160.181 50.0328 161.08 50.0794C161.323 50.0928 161.566 50.0928 161.809 50.0794H173.66C174.558 50.1262 175.457 49.9954 176.304 49.6946C177.152 49.3939 177.932 48.929 178.6 48.3266C179.268 47.7242 179.81 46.996 180.196 46.1838C180.583 45.3715 180.805 44.4911 180.851 43.5928C180.866 43.358 180.866 43.1224 180.851 42.8876V20.4467H175.761V43.1187ZM113.333 38.1671H103.478L108.331 26.231H108.503L113.333 38.1671ZM111.188 20.4467H105.926L93.603 50.0794H98.5629L101.626 42.5675H115.131L118.177 50.0617H123.46L111.188 20.4467Z" fill="black"/>
</svg>
